<svg width="128" height="20" viewBox="0 0 128 20" fill="none" xmlns="http://www.w3.org/2000/svg">
<path d="M5.18 8H0V0H8V5.18C8 6.74 6.74 8 5.18 8Z" fill="#C2DF0A"/>
<path d="M8 20H0V12H5.18C6.74 12 8 13.26 8 14.82V20Z" fill="#00B0CA"/>
<path d="M20 8H14.82C13.26 8 12 6.74 12 5.18V0H20V8Z" fill="#00B0CA"/>
<path d="M20 20H12V14.82C12 13.26 13.26 12 14.82 12H20V20Z" fill="#C2DF0A"/>
<path fill-rule="evenodd" clip-rule="evenodd" d="M88.2813 11.9482C86.1541 11.9482 84.4314 13.6324 84.4314 15.7113V19.4593H92.1145V11.9482H88.2813ZM72.8554 8.18597V0.675537H80.5379V4.42643C80.5379 6.50303 78.8165 8.18597 76.6928 8.18597H72.8554Z" fill="#C2DF0A"/>
<path fill-rule="evenodd" clip-rule="evenodd" d="M46.5111 14.7726C50.1131 14.7726 51.3222 11.8037 51.3222 9.98457C51.3222 7.72426 49.7275 5.22912 46.4804 5.22912C43.1919 5.22912 41.7418 7.92512 41.7418 10.0548C41.7418 11.8037 43.0542 14.7726 46.5111 14.7726ZM57.0602 19.3606H51.3222V17.3322H51.2526C50.2844 19.1554 47.8996 20 45.6489 20C39.5628 20 36 15.3446 36 9.98457C36 3.84408 40.5326 0 45.6489 0C48.7956 0 50.5617 1.48622 51.2526 2.63403H51.3222V0.641667H57.0602V19.3606Z" fill="#00B0CA"/>
<path fill-rule="evenodd" clip-rule="evenodd" d="M117.452 14.7726C121.046 14.7726 122.258 11.8037 122.258 9.98457C122.258 7.72426 120.666 5.22912 117.419 5.22912C114.131 5.22912 112.676 7.92512 112.676 10.0548C112.676 11.8037 113.991 14.7726 117.452 14.7726ZM128 19.3606H122.258V17.3322H122.186C121.222 19.1554 118.833 20 116.587 20C110.501 20 106.94 15.3446 106.94 9.98457C106.94 3.84408 111.466 0 116.587 0C119.735 0 121.496 1.48622 122.186 2.63403H122.258V0.641667H128V19.3606Z" fill="#00B0CA"/>
<path fill-rule="evenodd" clip-rule="evenodd" d="M76.7834 11.9237H72.8583C72.5401 14.1125 71.099 14.7773 69.6355 14.7773C66.549 14.7773 66.549 12.3129 66.549 11.0298V0.675537H60.8012V11.8749C60.8012 14.4359 61.0013 15.7863 62.5295 17.6412C64.2273 19.7296 66.998 19.9999 68.1743 19.9999C69.5414 19.9999 71.6854 19.822 72.9252 17.8436V19.4146H80.6145V15.5477C80.6145 13.5383 78.8631 11.9237 76.7834 11.9237Z" fill="#00B0CA"/>
<path fill-rule="evenodd" clip-rule="evenodd" d="M88.3278 8.2126H92.2491C92.5659 6.02406 94.0085 5.36277 95.4742 5.36277C98.5601 5.36277 98.5601 7.82739 98.5601 9.10564V19.4596H104.307V8.2638C104.307 5.70164 104.106 4.34901 102.579 2.49407C100.879 0.404968 98.1083 0.135223 96.9298 0.135223C95.5684 0.135223 93.4217 0.313616 92.181 2.29507V0.719984H84.494V4.58951C84.494 6.59858 86.2462 8.21557 88.3278 8.2126Z" fill="#00B0CA"/>
</svg>
